<mxfile host="app.diagrams.net" modified="2021-05-13T01:11:15.153Z" agent="5.0 (Macintosh; Intel Mac OS X 10_15_6) AppleWebKit/605.1.15 (KHTML, like Gecko) Version/14.0.3 Safari/605.1.15" etag="w3C9r1-Eymt0VkYT0ENA" version="14.6.11" type="github">
  <diagram id="C5RBs43oDa-KdzZeNtuy" name="Page-1">
    <mxGraphModel dx="701" dy="451" grid="1" gridSize="10" guides="1" tooltips="1" connect="1" arrows="1" fold="1" page="1" pageScale="1" pageWidth="827" pageHeight="1169" math="0" shadow="0">
      <root>
        <mxCell id="WIyWlLk6GJQsqaUBKTNV-0" />
        <mxCell id="WIyWlLk6GJQsqaUBKTNV-1" parent="WIyWlLk6GJQsqaUBKTNV-0" />
        <mxCell id="WIyWlLk6GJQsqaUBKTNV-4" value="Yes" style="rounded=0;html=1;jettySize=auto;orthogonalLoop=1;fontSize=11;endArrow=block;endFill=0;endSize=8;strokeWidth=1;shadow=0;labelBackgroundColor=none;edgeStyle=orthogonalEdgeStyle;" parent="WIyWlLk6GJQsqaUBKTNV-1" source="WIyWlLk6GJQsqaUBKTNV-6" target="LP7CO-IEMAus1u5R9NsE-2" edge="1">
          <mxGeometry y="20" relative="1" as="geometry">
            <mxPoint as="offset" />
            <mxPoint x="195" y="220" as="targetPoint" />
          </mxGeometry>
        </mxCell>
        <mxCell id="WIyWlLk6GJQsqaUBKTNV-5" value="No" style="edgeStyle=orthogonalEdgeStyle;rounded=0;html=1;jettySize=auto;orthogonalLoop=1;fontSize=11;endArrow=block;endFill=0;endSize=8;strokeWidth=1;shadow=0;labelBackgroundColor=none;" parent="WIyWlLk6GJQsqaUBKTNV-1" source="WIyWlLk6GJQsqaUBKTNV-6" target="WIyWlLk6GJQsqaUBKTNV-7" edge="1">
          <mxGeometry y="10" relative="1" as="geometry">
            <mxPoint as="offset" />
            <Array as="points">
              <mxPoint x="340" y="100" />
              <mxPoint x="340" y="460" />
            </Array>
          </mxGeometry>
        </mxCell>
        <mxCell id="WIyWlLk6GJQsqaUBKTNV-6" value="&lt;div style=&quot;font-size: 12px&quot;&gt;Prescription Checkbox checked?&lt;/div&gt;" style="rhombus;whiteSpace=wrap;html=1;shadow=0;fontFamily=Helvetica;fontSize=12;align=center;strokeWidth=1;spacing=6;spacingTop=-4;" parent="WIyWlLk6GJQsqaUBKTNV-1" vertex="1">
          <mxGeometry x="130" y="45" width="130" height="110" as="geometry" />
        </mxCell>
        <mxCell id="LP7CO-IEMAus1u5R9NsE-6" value="" style="edgeStyle=orthogonalEdgeStyle;rounded=0;orthogonalLoop=1;jettySize=auto;html=1;fontSize=12;" parent="WIyWlLk6GJQsqaUBKTNV-1" source="WIyWlLk6GJQsqaUBKTNV-7" target="LP7CO-IEMAus1u5R9NsE-5" edge="1">
          <mxGeometry relative="1" as="geometry" />
        </mxCell>
        <mxCell id="WIyWlLk6GJQsqaUBKTNV-7" value="Next Button" style="rounded=1;whiteSpace=wrap;html=1;fontSize=12;glass=0;strokeWidth=1;shadow=0;" parent="WIyWlLk6GJQsqaUBKTNV-1" vertex="1">
          <mxGeometry x="135" y="440" width="120" height="40" as="geometry" />
        </mxCell>
        <mxCell id="LP7CO-IEMAus1u5R9NsE-4" value="" style="edgeStyle=orthogonalEdgeStyle;rounded=0;orthogonalLoop=1;jettySize=auto;html=1;fontSize=12;" parent="WIyWlLk6GJQsqaUBKTNV-1" source="LP7CO-IEMAus1u5R9NsE-0" target="WIyWlLk6GJQsqaUBKTNV-7" edge="1">
          <mxGeometry relative="1" as="geometry" />
        </mxCell>
        <mxCell id="LP7CO-IEMAus1u5R9NsE-0" value="Change/update prescription details" style="rounded=1;whiteSpace=wrap;html=1;fontSize=12;" parent="WIyWlLk6GJQsqaUBKTNV-1" vertex="1">
          <mxGeometry x="135" y="340" width="120" height="60" as="geometry" />
        </mxCell>
        <mxCell id="LP7CO-IEMAus1u5R9NsE-3" value="" style="edgeStyle=orthogonalEdgeStyle;rounded=0;orthogonalLoop=1;jettySize=auto;html=1;fontSize=12;" parent="WIyWlLk6GJQsqaUBKTNV-1" source="LP7CO-IEMAus1u5R9NsE-2" target="LP7CO-IEMAus1u5R9NsE-0" edge="1">
          <mxGeometry relative="1" as="geometry" />
        </mxCell>
        <mxCell id="LP7CO-IEMAus1u5R9NsE-2" value="set state: isPrescriptionChecked(true)" style="shape=cylinder3;whiteSpace=wrap;html=1;boundedLbl=1;backgroundOutline=1;size=15;fontSize=12;" parent="WIyWlLk6GJQsqaUBKTNV-1" vertex="1">
          <mxGeometry x="165" y="210" width="60" height="80" as="geometry" />
        </mxCell>
        <mxCell id="LP7CO-IEMAus1u5R9NsE-8" value="Yes" style="edgeStyle=orthogonalEdgeStyle;rounded=0;orthogonalLoop=1;jettySize=auto;html=1;fontSize=12;entryX=0.5;entryY=0;entryDx=0;entryDy=0;" parent="WIyWlLk6GJQsqaUBKTNV-1" source="LP7CO-IEMAus1u5R9NsE-5" target="LP7CO-IEMAus1u5R9NsE-10" edge="1">
          <mxGeometry relative="1" as="geometry">
            <mxPoint x="195" y="690" as="targetPoint" />
          </mxGeometry>
        </mxCell>
        <mxCell id="zKRMRf0tQFEc3ov44IPj-22" style="edgeStyle=orthogonalEdgeStyle;rounded=0;orthogonalLoop=1;jettySize=auto;html=1;entryX=0;entryY=0.5;entryDx=0;entryDy=0;fontSize=12;" edge="1" parent="WIyWlLk6GJQsqaUBKTNV-1" source="LP7CO-IEMAus1u5R9NsE-5" target="zKRMRf0tQFEc3ov44IPj-24">
          <mxGeometry relative="1" as="geometry" />
        </mxCell>
        <mxCell id="zKRMRf0tQFEc3ov44IPj-23" value="No" style="edgeLabel;html=1;align=center;verticalAlign=middle;resizable=0;points=[];fontSize=12;" vertex="1" connectable="0" parent="zKRMRf0tQFEc3ov44IPj-22">
          <mxGeometry x="-0.0824" y="-1" relative="1" as="geometry">
            <mxPoint x="1" as="offset" />
          </mxGeometry>
        </mxCell>
        <mxCell id="LP7CO-IEMAus1u5R9NsE-5" value="isPrescriptionChecked?" style="rhombus;whiteSpace=wrap;html=1;fontSize=12;" parent="WIyWlLk6GJQsqaUBKTNV-1" vertex="1">
          <mxGeometry x="142.5" y="530" width="105" height="90" as="geometry" />
        </mxCell>
        <mxCell id="LP7CO-IEMAus1u5R9NsE-12" value="" style="edgeStyle=orthogonalEdgeStyle;rounded=0;orthogonalLoop=1;jettySize=auto;html=1;fontSize=12;entryX=0.5;entryY=0;entryDx=0;entryDy=0;entryPerimeter=0;" parent="WIyWlLk6GJQsqaUBKTNV-1" source="LP7CO-IEMAus1u5R9NsE-10" target="zKRMRf0tQFEc3ov44IPj-3" edge="1">
          <mxGeometry relative="1" as="geometry">
            <mxPoint x="220" y="830" as="targetPoint" />
          </mxGeometry>
        </mxCell>
        <mxCell id="LP7CO-IEMAus1u5R9NsE-15" value="Yes" style="edgeLabel;html=1;align=center;verticalAlign=middle;resizable=0;points=[];fontSize=12;" parent="LP7CO-IEMAus1u5R9NsE-12" vertex="1" connectable="0">
          <mxGeometry x="-0.1667" relative="1" as="geometry">
            <mxPoint as="offset" />
          </mxGeometry>
        </mxCell>
        <mxCell id="LP7CO-IEMAus1u5R9NsE-14" value="" style="edgeStyle=orthogonalEdgeStyle;rounded=0;orthogonalLoop=1;jettySize=auto;html=1;fontSize=12;" parent="WIyWlLk6GJQsqaUBKTNV-1" source="LP7CO-IEMAus1u5R9NsE-10" target="zKRMRf0tQFEc3ov44IPj-5" edge="1">
          <mxGeometry relative="1" as="geometry">
            <mxPoint x="320" y="730" as="targetPoint" />
          </mxGeometry>
        </mxCell>
        <mxCell id="LP7CO-IEMAus1u5R9NsE-16" value="No" style="edgeLabel;html=1;align=center;verticalAlign=middle;resizable=0;points=[];fontSize=12;" parent="LP7CO-IEMAus1u5R9NsE-14" vertex="1" connectable="0">
          <mxGeometry x="-0.0667" relative="1" as="geometry">
            <mxPoint x="1" as="offset" />
          </mxGeometry>
        </mxCell>
        <mxCell id="LP7CO-IEMAus1u5R9NsE-10" value="Confirm Change?" style="rhombus;whiteSpace=wrap;html=1;fontSize=12;" parent="WIyWlLk6GJQsqaUBKTNV-1" vertex="1">
          <mxGeometry x="132.5" y="680" width="125" height="80" as="geometry" />
        </mxCell>
        <mxCell id="LP7CO-IEMAus1u5R9NsE-13" value="Return to page" style="rounded=1;whiteSpace=wrap;html=1;fontSize=12;" parent="WIyWlLk6GJQsqaUBKTNV-1" vertex="1">
          <mxGeometry x="460" y="690" width="120" height="60" as="geometry" />
        </mxCell>
        <mxCell id="zKRMRf0tQFEc3ov44IPj-12" value="" style="edgeStyle=orthogonalEdgeStyle;rounded=0;orthogonalLoop=1;jettySize=auto;html=1;fontSize=12;" edge="1" parent="WIyWlLk6GJQsqaUBKTNV-1" source="zKRMRf0tQFEc3ov44IPj-3" target="zKRMRf0tQFEc3ov44IPj-8">
          <mxGeometry relative="1" as="geometry" />
        </mxCell>
        <mxCell id="zKRMRf0tQFEc3ov44IPj-3" value="set state: isAgreed(true)" style="shape=cylinder3;whiteSpace=wrap;html=1;boundedLbl=1;backgroundOutline=1;size=15;fontSize=12;" vertex="1" parent="WIyWlLk6GJQsqaUBKTNV-1">
          <mxGeometry x="165" y="810" width="60" height="80" as="geometry" />
        </mxCell>
        <mxCell id="zKRMRf0tQFEc3ov44IPj-6" value="" style="edgeStyle=orthogonalEdgeStyle;rounded=0;orthogonalLoop=1;jettySize=auto;html=1;fontSize=12;" edge="1" parent="WIyWlLk6GJQsqaUBKTNV-1" source="zKRMRf0tQFEc3ov44IPj-5" target="LP7CO-IEMAus1u5R9NsE-13">
          <mxGeometry relative="1" as="geometry" />
        </mxCell>
        <mxCell id="zKRMRf0tQFEc3ov44IPj-5" value="set state: isAgreed(false)" style="shape=cylinder3;whiteSpace=wrap;html=1;boundedLbl=1;backgroundOutline=1;size=15;fontSize=12;" vertex="1" parent="WIyWlLk6GJQsqaUBKTNV-1">
          <mxGeometry x="354" y="680" width="60" height="80" as="geometry" />
        </mxCell>
        <mxCell id="zKRMRf0tQFEc3ov44IPj-10" style="edgeStyle=orthogonalEdgeStyle;rounded=0;orthogonalLoop=1;jettySize=auto;html=1;entryX=0;entryY=0.5;entryDx=0;entryDy=0;fontSize=12;" edge="1" parent="WIyWlLk6GJQsqaUBKTNV-1" source="zKRMRf0tQFEc3ov44IPj-8" target="zKRMRf0tQFEc3ov44IPj-9">
          <mxGeometry relative="1" as="geometry" />
        </mxCell>
        <mxCell id="zKRMRf0tQFEc3ov44IPj-11" value="Yes" style="edgeLabel;html=1;align=center;verticalAlign=middle;resizable=0;points=[];fontSize=12;" vertex="1" connectable="0" parent="zKRMRf0tQFEc3ov44IPj-10">
          <mxGeometry x="-0.0788" relative="1" as="geometry">
            <mxPoint as="offset" />
          </mxGeometry>
        </mxCell>
        <mxCell id="zKRMRf0tQFEc3ov44IPj-16" style="edgeStyle=orthogonalEdgeStyle;rounded=0;orthogonalLoop=1;jettySize=auto;html=1;entryX=0;entryY=0.5;entryDx=0;entryDy=0;fontSize=12;" edge="1" parent="WIyWlLk6GJQsqaUBKTNV-1" source="zKRMRf0tQFEc3ov44IPj-8" target="zKRMRf0tQFEc3ov44IPj-13">
          <mxGeometry relative="1" as="geometry">
            <Array as="points">
              <mxPoint x="195" y="1070" />
            </Array>
          </mxGeometry>
        </mxCell>
        <mxCell id="zKRMRf0tQFEc3ov44IPj-17" value="No" style="edgeLabel;html=1;align=center;verticalAlign=middle;resizable=0;points=[];fontSize=12;" vertex="1" connectable="0" parent="zKRMRf0tQFEc3ov44IPj-16">
          <mxGeometry x="-0.2571" y="-1" relative="1" as="geometry">
            <mxPoint x="74" y="-1" as="offset" />
          </mxGeometry>
        </mxCell>
        <mxCell id="zKRMRf0tQFEc3ov44IPj-8" value="isAgreed true?&lt;br&gt;isPrescriptionCheckedtrue?" style="rhombus;whiteSpace=wrap;html=1;fontSize=12;" vertex="1" parent="WIyWlLk6GJQsqaUBKTNV-1">
          <mxGeometry x="155" y="930" width="80" height="80" as="geometry" />
        </mxCell>
        <mxCell id="zKRMRf0tQFEc3ov44IPj-19" style="edgeStyle=orthogonalEdgeStyle;rounded=0;orthogonalLoop=1;jettySize=auto;html=1;entryX=0;entryY=0.5;entryDx=0;entryDy=0;fontSize=12;dashed=1;" edge="1" parent="WIyWlLk6GJQsqaUBKTNV-1" source="zKRMRf0tQFEc3ov44IPj-9" target="zKRMRf0tQFEc3ov44IPj-18">
          <mxGeometry relative="1" as="geometry" />
        </mxCell>
        <mxCell id="zKRMRf0tQFEc3ov44IPj-9" value="setNextpath = {setNextPath}" style="shape=hexagon;perimeter=hexagonPerimeter2;whiteSpace=wrap;html=1;fixedSize=1;fontSize=12;" vertex="1" parent="WIyWlLk6GJQsqaUBKTNV-1">
          <mxGeometry x="380" y="930" width="120" height="80" as="geometry" />
        </mxCell>
        <mxCell id="zKRMRf0tQFEc3ov44IPj-13" value="setNextPath=&quot;&quot;" style="shape=hexagon;perimeter=hexagonPerimeter2;whiteSpace=wrap;html=1;fixedSize=1;fontSize=12;" vertex="1" parent="WIyWlLk6GJQsqaUBKTNV-1">
          <mxGeometry x="380" y="1030" width="120" height="80" as="geometry" />
        </mxCell>
        <mxCell id="zKRMRf0tQFEc3ov44IPj-18" value="Require user to click on Next again to go to next page" style="ellipse;whiteSpace=wrap;html=1;fontSize=12;" vertex="1" parent="WIyWlLk6GJQsqaUBKTNV-1">
          <mxGeometry x="580" y="930" width="120" height="80" as="geometry" />
        </mxCell>
        <mxCell id="zKRMRf0tQFEc3ov44IPj-21" value="Next page" style="ellipse;whiteSpace=wrap;html=1;fontSize=12;" vertex="1" parent="WIyWlLk6GJQsqaUBKTNV-1">
          <mxGeometry x="520" y="535" width="120" height="80" as="geometry" />
        </mxCell>
        <mxCell id="zKRMRf0tQFEc3ov44IPj-25" style="edgeStyle=orthogonalEdgeStyle;rounded=0;orthogonalLoop=1;jettySize=auto;html=1;entryX=0;entryY=0.5;entryDx=0;entryDy=0;fontSize=12;" edge="1" parent="WIyWlLk6GJQsqaUBKTNV-1" source="zKRMRf0tQFEc3ov44IPj-24" target="zKRMRf0tQFEc3ov44IPj-21">
          <mxGeometry relative="1" as="geometry" />
        </mxCell>
        <mxCell id="zKRMRf0tQFEc3ov44IPj-24" value="setNextpath = {setNextPath}" style="shape=hexagon;perimeter=hexagonPerimeter2;whiteSpace=wrap;html=1;fixedSize=1;fontSize=12;" vertex="1" parent="WIyWlLk6GJQsqaUBKTNV-1">
          <mxGeometry x="330" y="535" width="120" height="80" as="geometry" />
        </mxCell>
      </root>
    </mxGraphModel>
  </diagram>
</mxfile>
